# xmcd
#
# Track frame offsets:
#	150
#	14184
#	27630
#	41663
#
# Disc length: 733 seconds
#
# Revision: 0
# Processed by: cddbd v1.5.2PL0 Copyright (c) Steve Scherf et al.
# Submitted via: audiograbber 1.83.01
#
DISCID=3402db04
DTITLE=Mario and Tommy - Tolle Mama, starke Frau
DYEAR=2004
DGENRE=Volksmusik
TTITLE0=Tolle Mama, starke Frau
TTITLE1=Lass uns heut das Leben leben
TTITLE2=Tolle Mama, starke Frau (karaoke)
TTITLE3=Lass uns heut das leben leben (karaoke)
EXTD=<http://www.hit-radio24.de> \n
EXTT0=
EXTT1=
EXTT2=
EXTT3=
PLAYORDER=
